# xmcd
#
# Track frame offsets:
#	150
#	19923
#	38218
#	59128
#	80337
#	100753
#	121648
#	139285
#	156339
#	172462
#	190783
#	206139
#	221218
#	239236
#	255739
#	272529
#	288580
#	306577
#	326499
#
# Disc length: 4601 seconds
#
# Revision: 1
# Processed by: cddbd v1.5.2PL0 Copyright (c) Steve Scherf et al.
# Submitted via: EasyCDDAExtractor 16.0.9.1
#
DISCID=3311f713
DTITLE=Various Artist - Euro Hits Vol.5
DYEAR=2002
DGENRE=Dance
TTITLE0=Backstreet - The One (Dance Mix)
TTITLE1=Atlantis - The Otherside (French Mix)
TTITLE2=BB Project - Will I Ever (DJ Mix)
TTITLE3=Ricky O. - Private Emotion (N-R-G Mix)
TTITLE4=Helen - Oops I Did It Again (Euro Mix)
TTITLE5=Axel Force - It's My Life (Bon Apetit Mix)
TTITLE6=Circle 99 - All The Small Things (Don't Blink Mix)
TTITLE7=Red Hardin - Be With You (Hot Mix)
TTITLE8=3 Boys - If Only (Handsome Mix)
TTITLE9=DJ Hush - The Summer (Vocal Mix)
TTITLE10=Buckbeats - Sex Bomb (Euro Mix)
TTITLE11=Houzboyz - It's Gonna Be Me (Syncro Mix)
TTITLE12=Dirty boys - My Uncle John From Jamaica (Party Mix)
TTITLE13=Kyria - Don't Say You Love Me (Girlie Mix)
TTITLE14=Iesha - Let's Get Loud (Latino Party Mix)
TTITLE15=Barabbas - Maria Maria (House Mix)
TTITLE16=New York Rappers - Bad Touch (Bad Hound Mix)
TTITLE17=Sheldon - Never Be The Same Again (Slo Mix)
TTITLE18=Semisane - Now I Know (Dance Remix)
EXTD=YEAR: 2002
EXTT0=
EXTT1=
EXTT2=
EXTT3=
EXTT4=
EXTT5=
EXTT6=
EXTT7=
EXTT8=
EXTT9=
EXTT10=
EXTT11=
EXTT12=
EXTT13=
EXTT14=
EXTT15=
EXTT16=
EXTT17=
EXTT18=
PLAYORDER=
